inDegrees=no
DataType=double
version=3
OpenSimVersion=4.4-2022-10-11-798caa840
endheader
time	elv_angle	shoulder_elv	shoulder_rot	elbow_flexion	pro_sup	deviation	flexion
2.4020851434	0.9116476178	1.1341549158	0.4363323152	1.5931844711	0.0000000000	0.0000000000	0.0000000000
2.4062554301	0.9116476178	1.1341549158	0.4363323152	1.5931844711	0.0000000000	0.0000000000	0.0000000000
2.4104257168	0.9116476178	1.1341549158	0.4363323152	1.5931844711	0.0000000000	0.0000000000	0.0000000000
2.4145960035	0.9116476178	1.1341549158	0.4363323152	1.5931844711	0.0000000000	0.0000000000	0.0000000000
2.4187662902	0.9116476178	1.1341549158	0.4363323152	1.5931844711	0.0000000000	0.0000000000	0.0000000000
2.4229365769	0.9116476178	1.1341549158	0.4363323152	1.5931844711	0.0000000000	0.0000000000	0.0000000000
2.4271068636	0.9116476178	1.1341549158	0.4363323152	1.5931844711	0.0000000000	0.0000000000	0.0000000000
2.4312771503	0.9116476178	1.1341549158	0.4363323152	1.5931844711	0.0000000000	0.0000000000	0.0000000000
2.4354474370	0.9116476178	1.1341549158	0.4363323152	1.5931844711	0.0000000000	0.0000000000	0.0000000000
2.4396177237	0.9116476178	1.1341549158	0.4363323152	1.5931844711	0.0000000000	0.0000000000	0.0000000000
2.4437880104	0.9116476178	1.1341549158	0.4363323152	1.5931844711	0.0000000000	0.0000000000	0.0000000000
2.4479582971	0.9116476178	1.1341549158	0.4363323152	1.5931844711	0.0000000000	0.0000000000	0.0000000000
2.4521285838	0.9116476178	1.1341549158	0.4363323152	1.5931844711	0.0000000000	0.0000000000	0.0000000000
2.4562988705	0.9116476178	1.1341549158	0.4363323152	1.5931844711	0.0000000000	0.0000000000	0.0000000000
2.4604691573	0.9116476178	1.1341549158	0.4363323152	1.5931844711	0.0000000000	0.0000000000	0.0000000000
2.4646394440	0.9116476178	1.1341549158	0.4363323152	1.5931844711	0.0000000000	0.0000000000	0.0000000000
2.4688097307	0.9116476178	1.1341549158	0.4363323152	1.5931844711	0.0000000000	0.0000000000	0.0000000000
2.4729800174	0.9116476178	1.1341549158	0.4363323152	1.5931844711	0.0000000000	0.0000000000	0.0000000000
2.4771503041	0.9116476178	1.1341549158	0.4363323152	1.5931844711	0.0000000000	0.0000000000	0.0000000000
2.4813205908	0.9116476178	1.1341549158	0.4363323152	1.5931844711	0.0000000000	0.0000000000	0.0000000000
2.4854908775	0.9116476178	1.1341549158	0.4363323152	1.5931844711	0.0000000000	0.0000000000	0.0000000000
2.4896611642	0.9116476178	1.1341549158	0.4363323152	1.5931844711	0.0000000000	0.0000000000	0.0000000000
2.4938314509	0.9116476178	1.1341549158	0.4363323152	1.5931844711	0.0000000000	0.0000000000	0.0000000000
2.4980017376	0.9116476178	1.1341549158	0.4363323152	1.5931844711	0.0000000000	0.0000000000	0.0000000000
2.5021720243	0.9116476178	1.1341549158	0.4363323152	1.5931844711	0.0000000000	0.0000000000	0.0000000000
2.5063423110	0.9116476178	1.1341549158	0.4363323152	1.5931844711	0.0000000000	0.0000000000	0.0000000000
2.5105125977	0.9116476178	1.1341549158	0.4363323152	1.5931844711	0.0000000000	0.0000000000	0.0000000000
2.5146828844	0.9116476178	1.1341549158	0.4363323152	1.5931844711	0.0000000000	0.0000000000	0.0000000000
2.5188531712	0.9116476178	1.1341549158	0.4363323152	1.5931844711	0.0000000000	0.0000000000	0.0000000000
2.5230234579	0.9116476178	1.1341549158	0.4363323152	1.5931844711	0.0000000000	0.0000000000	0.0000000000
2.5271937446	0.9116476178	1.1341549158	0.4363323152	1.5931844711	0.0000000000	0.0000000000	0.0000000000
2.5313640313	0.9116476178	1.1341549158	0.4363323152	1.5931844711	0.0000000000	0.0000000000	0.0000000000
2.5355343180	0.9116476178	1.1341549158	0.4363323152	1.5931844711	0.0000000000	0.0000000000	0.0000000000
2.5397046047	0.9116476178	1.1341549158	0.4363323152	1.5931844711	0.0000000000	0.0000000000	0.0000000000
2.5438748914	0.9116476178	1.1341549158	0.4363323152	1.5931844711	0.0000000000	0.0000000000	0.0000000000
2.5480451781	0.9116476178	1.1341549158	0.4363323152	1.5931844711	0.0000000000	0.0000000000	0.0000000000
2.5522154648	0.9116476178	1.1341549158	0.4363323152	1.5931844711	0.0000000000	0.0000000000	0.0000000000
2.5563857515	0.9116476178	1.1341549158	0.4363323152	1.5931844711	0.0000000000	0.0000000000	0.0000000000
2.5605560382	0.9116476178	1.1341549158	0.4363323152	1.5931844711	0.0000000000	0.0000000000	0.0000000000
2.5647263249	0.9116476178	1.1341549158	0.4363323152	1.5931844711	0.0000000000	0.0000000000	0.0000000000
2.5688966116	0.9116476178	1.1341549158	0.4363323152	1.5931844711	0.0000000000	0.0000000000	0.0000000000
2.5730668983	0.9116476178	1.1341549158	0.4363323152	1.5931844711	0.0000000000	0.0000000000	0.0000000000
2.5772371851	0.9116476178	1.1341549158	0.4363323152	1.5931844711	0.0000000000	0.0000000000	0.0000000000
2.5814074718	0.9116476178	1.1341549158	0.4363323152	1.5931844711	0.0000000000	0.0000000000	0.0000000000
2.5855777585	0.9116476178	1.1341549158	0.4363323152	1.5931844711	0.0000000000	0.0000000000	0.0000000000
2.5897480452	0.9116476178	1.1341549158	0.4363323152	1.5931844711	0.0000000000	0.0000000000	0.0000000000
2.5939183319	0.9116476178	1.1341549158	0.4363323152	1.5931844711	0.0000000000	0.0000000000	0.0000000000
2.5980886186	0.9116476178	1.1341549158	0.4363323152	1.5931844711	0.0000000000	0.0000000000	0.0000000000
2.6022589053	0.9116476178	1.1341549158	0.4363323152	1.5931844711	0.0000000000	0.0000000000	0.0000000000
2.6064291920	0.9116476178	1.1341549158	0.4363323152	1.5931844711	0.0000000000	0.0000000000	0.0000000000
2.6105994787	0.9116476178	1.1341549158	0.4363323152	1.5931844711	0.0000000000	0.0000000000	0.0000000000
2.6147697654	0.9116476178	1.1341549158	0.4363323152	1.5931844711	0.0000000000	0.0000000000	0.0000000000
2.6189400521	0.9116476178	1.1341549158	0.4363323152	1.5931844711	0.0000000000	0.0000000000	0.0000000000
2.6231103388	0.9116476178	1.1341549158	0.4363323152	1.5931844711	0.0000000000	0.0000000000	0.0000000000
2.6272806255	0.9116476178	1.1341549158	0.4363323152	1.5931844711	0.0000000000	0.0000000000	0.0000000000
2.6314509123	0.9116476178	1.1341549158	0.4363323152	1.5931844711	0.0000000000	0.0000000000	0.0000000000
2.6356211990	0.9116476178	1.1341549158	0.4363323152	1.5931844711	0.0000000000	0.0000000000	0.0000000000
2.6397914857	0.9116476178	1.1341549158	0.4363323152	1.5931844711	0.0000000000	0.0000000000	0.0000000000
2.6439617724	0.9116476178	1.1341549158	0.4363323152	1.5931844711	0.0000000000	0.0000000000	0.0000000000
2.6481320591	0.9116476178	1.1341549158	0.4363323152	1.5931844711	0.0000000000	0.0000000000	0.0000000000
2.6523023458	0.9116476178	1.1341549158	0.4363323152	1.5931844711	0.0000000000	0.0000000000	0.0000000000
2.6564726325	0.9116467834	1.1341555119	0.4363323152	1.5931844711	0.0000000000	0.0000000000	0.0000000000
2.6606429192	0.9116411209	1.1341590881	0.4363323152	1.5931838751	0.0000000000	0.0000000000	0.0000000000
2.6648132059	0.9116259217	1.1341687441	0.4363323152	1.5931824446	0.0000000000	0.0000000000	0.0000000000
2.6689834926	0.9115968347	1.1341873407	0.4363323152	1.5931798220	0.0000000000	0.0000000000	0.0000000000
2.6731537793	0.9115496874	1.1342173815	0.4363323152	1.5931754112	0.0000000000	0.0000000000	0.0000000000
2.6773240660	0.9114806056	1.1342614889	0.4363323152	1.5931689739	0.0000000000	0.0000000000	0.0000000000
2.6814943527	0.9113858342	1.1343219280	0.4363323152	1.5931601524	0.0000000000	0.0000000000	0.0000000000
2.6856646394	0.9112620354	1.1344008446	0.4363323152	1.5931485891	0.0000000000	0.0000000000	0.0000000000
2.6898349262	0.9111058712	1.1345005035	0.4363323152	1.5931341648	0.0000000000	0.0000000000	0.0000000000
2.6940052129	0.9109144807	1.1346226931	0.4363323152	1.5931161642	0.0000000000	0.0000000000	0.0000000000
2.6981754996	0.9106849432	1.1347692013	0.4363323152	1.5930947065	0.0000000000	0.0000000000	0.0000000000
2.7023457863	0.9104149342	1.1349418163	0.4363323152	1.5930693150	0.0000000000	0.0000000000	0.0000000000
2.7065160730	0.9101018906	1.1351417303	0.4363323152	1.5930397511	0.0000000000	0.0000000000	0.0000000000
2.7106863597	0.9097437263	1.1353707314	0.4363323152	1.5930057764	0.0000000000	0.0000000000	0.0000000000
2.7148566464	0.9093386531	1.1356297731	0.4363323152	1.5929672718	0.0000000000	0.0000000000	0.0000000000
2.7190269331	0.9088850021	1.1359200478	0.4363323152	1.5929238796	0.0000000000	0.0000000000	0.0000000000
2.7231972198	0.9083810449	1.1362428665	0.4363323152	1.5928754807	0.0000000000	0.0000000000	0.0000000000
2.7273675065	0.9078257084	1.1365988255	0.4363323152	1.5928218365	0.0000000000	0.0000000000	0.0000000000
2.7315377932	0.9072178602	1.1369886398	0.4363323152	1.5927625895	0.0000000000	0.0000000000	0.0000000000
2.7357080799	0.9065565467	1.1374132633	0.4363323152	1.5926977396	0.0000000000	0.0000000000	0.0000000000
2.7398783666	0.9058409929	1.1378731728	0.4363323152	1.5926270485	0.0000000000	0.0000000000	0.0000000000
2.7440486533	0.9050707817	1.1383686066	0.4363323152	1.5925503969	0.0000000000	0.0000000000	0.0000000000
2.7482189401	0.9042454362	1.1389001608	0.4363323152	1.5924674273	0.0000000000	0.0000000000	0.0000000000
2.7523892268	0.9033648968	1.1394678354	0.4363323152	1.5923780203	0.0000000000	0.0000000000	0.0000000000
2.7565595135	0.9024290442	1.1400721073	0.4363323152	1.5922821760	0.0000000000	0.0000000000	0.0000000000
2.7607298002	0.9014380574	1.1407127380	0.4363323152	1.5921795368	0.0000000000	0.0000000000	0.0000000000
2.7649000869	0.9003924131	1.1413897276	0.4363323152	1.5920701027	0.0000000000	0.0000000000	0.0000000000
2.7690703736	0.8992922902	1.1421028376	0.4363323152	1.5919533968	0.0000000000	0.0000000000	0.0000000000
2.7732406603	0.8981384635	1.1428521872	0.4363323152	1.5918296576	0.0000000000	0.0000000000	0.0000000000
2.7774109470	0.8969317675	1.1436371803	0.4363323152	1.5916986465	0.0000000000	0.0000000000	0.0000000000
2.7815812337	0.8956728578	1.1444572210	0.4363323152	1.5915601254	0.0000000000	0.0000000000	0.0000000000
2.7857515204	0.8943629861	1.1453123093	0.4363323152	1.5914139748	0.0000000000	0.0000000000	0.0000000000
2.7899218071	0.8930031657	1.1462014914	0.4363323152	1.5912601948	0.0000000000	0.0000000000	0.0000000000
2.7940920938	0.8915947676	1.1471241713	0.4363323152	1.5910986662	0.0000000000	0.0000000000	0.0000000000
2.7982623805	0.8901391029	1.1480796337	0.4363323152	1.5909291506	0.0000000000	0.0000000000	0.0000000000
2.8024326672	0.8886376023	1.1490672827	0.4363323152	1.5907516479	0.0000000000	0.0000000000	0.0000000000
2.8066029540	0.8870919347	1.1500861645	0.4363323152	1.5905661583	0.0000000000	0.0000000000	0.0000000000
2.8107732407	0.8855037689	1.1511350870	0.4363323152	1.5903725624	0.0000000000	0.0000000000	0.0000000000
2.8149435274	0.8838749528	1.1522134542	0.4363323152	1.5901706219	0.0000000000	0.0000000000	0.0000000000
2.8191138141	0.8822070956	1.1533199549	0.4363323152	1.5899606943	0.0000000000	0.0000000000	0.0000000000
2.8232841008	0.8805023432	1.1544535160	0.4363323152	1.5897424221	0.0000000000	0.0000000000	0.0000000000
2.8274543875	0.8787626028	1.1556130648	0.4363323152	1.5895160437	0.0000000000	0.0000000000	0.0000000000
2.8316246742	0.8769899011	1.1567974091	0.4363323152	1.5892813206	0.0000000000	0.0000000000	0.0000000000
2.8357949609	0.8751864433	1.1580051184	0.4363323152	1.5890386105	0.0000000000	0.0000000000	0.0000000000
